<?xml version="1.0" encoding="utf-8"?>
<!-- Generator: Adobe Illustrator 24.3.0, SVG Export Plug-In . SVG Version: 6.00 Build 0)  -->
<svg version="1.1" id="Layer_1" xmlns="http://www.w3.org/2000/svg" xmlns:xlink="http://www.w3.org/1999/xlink" x="0px" y="0px"
	 viewBox="0 0 159.63 160.24" style="enable-background:new 0 0 159.63 160.24;" xml:space="preserve">
<style type="text/css">
	.st0{fill:none;}
	.st1{font-family:'Raleway-Bold';}
	.st2{font-size:18px;}
	.st3{letter-spacing:1;}
	.st4{font-family:'Lato-Regular';}
	.st5{font-size:10px;}
	.st6{letter-spacing:2;}
</style>
<g id="_x39__1_">
	<rect x="8.26" y="72.43" class="st0" width="143.41" height="32"/>
	<text transform="matrix(1 0 0 1 35.3511 85.5737)" class="st1 st2 st3">FeedApp</text>
	<path d="M140.74,54.83c0-9.17-3.5-18.35-10.5-25.34c-7-7-16.17-10.5-25.34-10.5c-6.49-6.49-15.45-10.5-25.34-10.5
		S60.7,12.5,54.21,18.99c-9.17,0-18.35,3.5-25.34,10.5s-10.5,16.17-10.5,25.34c-6.49,6.49-10.5,15.45-10.5,25.34
		s4.01,18.86,10.5,25.34c0,9.17,3.5,18.35,10.5,25.34c7,7,16.17,10.5,25.34,10.5c6.49,6.49,15.45,10.5,25.34,10.5
		s18.86-4.01,25.34-10.5c9.17,0,18.35-3.5,25.34-10.5c7-7,10.5-16.17,10.5-25.34c6.49-6.49,10.5-15.45,10.5-25.34
		S147.23,61.32,140.74,54.83z M128.83,81.59c3.23,3.23,5.73,7,7.43,11.19c1.54,3.8,2.37,7.79,2.47,11.9
		c-2.97,2.83-6.38,5.07-10.16,6.67c-4.17,1.76-8.6,2.66-13.17,2.66h-2.01v2.01c0,4.57-0.89,9-2.66,13.17
		c-1.6,3.77-3.84,7.19-6.67,10.16c-4.1-0.1-8.1-0.93-11.9-2.47c-4.2-1.7-7.96-4.2-11.19-7.43l-1.42-1.42l-1.42,1.42
		c-3.23,3.23-7,5.73-11.19,7.43c-3.8,1.54-7.79,2.37-11.9,2.47c-2.83-2.97-5.07-6.38-6.67-10.16c-1.76-4.17-2.66-8.6-2.66-13.17
		v-2.01h-2.01c-4.57,0-9-0.89-13.17-2.66c-3.77-1.6-7.19-3.84-10.16-6.67c0.1-4.1,0.93-8.1,2.47-11.9c1.7-4.2,4.2-7.96,7.43-11.19
		l1.42-1.42l-1.42-1.42c-3.23-3.23-5.73-7-7.43-11.19c-1.54-3.8-2.37-7.79-2.47-11.9c2.97-2.83,6.38-5.07,10.16-6.67
		c4.17-1.76,8.6-2.66,13.17-2.66h2.01v-2.01c0-4.57,0.89-9,2.66-13.17c1.6-3.77,3.84-7.19,6.67-10.16c4.1,0.1,8.1,0.93,11.9,2.47
		c4.2,1.7,7.96,4.2,11.19,7.43l1.42,1.42l1.42-1.42c3.23-3.23,7-5.73,11.19-7.43c3.8-1.54,7.79-2.37,11.9-2.47
		c2.83,2.97,5.07,6.38,6.67,10.16c1.76,4.17,2.66,8.6,2.66,13.17v2.01h2.01c4.57,0,9,0.89,13.17,2.66c3.77,1.6,7.19,3.84,10.16,6.67
		c-0.1,4.1-0.93,8.1-2.47,11.9c-1.7,4.2-4.2,7.96-7.43,11.19l-1.42,1.42L128.83,81.59z M117.64,23.47c4.2,1.7,7.96,4.2,11.19,7.43
		c3.23,3.23,5.73,7,7.43,11.19c1.41,3.47,2.22,7.1,2.42,10.83c-6.26-5.36-14.39-8.59-23.28-8.59c0-8.89-3.24-17.02-8.59-23.28
		C110.54,21.26,114.17,22.07,117.64,23.47z M66.39,13.15c4.17-1.76,8.6-2.66,13.17-2.66c4.57,0,9,0.89,13.17,2.66
		c3.44,1.46,6.59,3.45,9.37,5.94c-8.22,0.64-16.26,4.1-22.54,10.39c-6.28-6.28-14.32-9.75-22.54-10.39
		C59.8,16.61,62.94,14.61,66.39,13.15z M22.86,42.1c1.7-4.2,4.2-7.96,7.43-11.19c3.23-3.23,7-5.73,11.19-7.43
		c3.47-1.41,7.1-2.22,10.83-2.42c-5.36,6.26-8.59,14.39-8.59,23.28c-8.89,0-17.02,3.24-23.28,8.59
		C20.64,49.2,21.45,45.56,22.86,42.1z M12.54,93.34c-1.76-4.17-2.66-8.6-2.66-13.17c0-4.57,0.89-9,2.66-13.17
		c1.46-3.44,3.45-6.59,5.94-9.37c0.64,8.22,4.1,16.26,10.39,22.54c-6.28,6.28-9.75,14.32-10.39,22.54
		C15.99,99.93,14,96.79,12.54,93.34z M41.48,136.88c-4.2-1.7-7.96-4.2-11.19-7.43c-3.23-3.23-5.73-7-7.43-11.19
		c-1.41-3.47-2.22-7.1-2.42-10.83c6.26,5.36,14.39,8.59,23.28,8.59c0,8.89,3.24,17.02,8.59,23.28
		C48.58,139.09,44.95,138.28,41.48,136.88z M92.73,147.19c-4.17,1.76-8.6,2.66-13.17,2.66c-4.57,0-9-0.89-13.17-2.66
		c-3.44-1.46-6.59-3.45-9.37-5.94c8.22-0.64,16.26-4.1,22.54-10.39c6.28,6.28,14.32,9.75,22.54,10.39
		C99.32,143.74,96.17,145.74,92.73,147.19z M136.26,118.25c-1.7,4.2-4.2,7.96-7.43,11.19c-3.23,3.23-7,5.73-11.19,7.43
		c-3.47,1.41-7.1,2.22-10.83,2.42c5.36-6.26,8.59-14.39,8.59-23.28c8.89,0,17.02-3.24,23.28-8.59
		C138.48,111.15,137.67,114.79,136.26,118.25z M140.63,102.71c-0.64-8.22-4.1-16.26-10.39-22.54c6.28-6.28,9.75-14.32,10.39-22.54
		c2.49,2.78,4.49,5.93,5.94,9.37c1.76,4.17,2.66,8.6,2.66,13.17c0,4.57-0.89,9-2.66,13.17C145.12,96.79,143.12,99.93,140.63,102.71z
		"/>
	<rect x="0.72" y="94.39" class="st0" width="158.9" height="22.53"/>
	<text transform="matrix(1 0 0 1 44.4671 101.768)" class="st4 st5 st6">poll service</text>
	<circle cx="80.14" cy="48.78" r="4.69"/>
	<circle cx="89.8" cy="49.12" r="2.34"/>
	<circle cx="69.8" cy="49.12" r="2.34"/>
</g>
</svg>
